# Blender v3.0.1 OBJ File: ''
# www.blender.org
mtllib model.mtl
o Cube
v -0.842419 1.299057 -0.842419
v 0.842419 1.299057 -0.842419
v -0.842419 1.299057 0.842419
v 0.842419 1.299057 0.842419
v 0.842419 0.842419 -1.000000
v 0.842419 1.000000 -0.842419
v 1.000000 0.842419 -0.842419
v 0.842419 -1.000000 -0.842419
v 0.842419 -0.842419 -1.000000
v 1.000000 -0.842419 -0.842419
v 1.000000 0.842419 0.842419
v 0.842419 1.000000 0.842419
v 0.842419 0.842419 1.000000
v 1.000000 -0.842419 0.842419
v 0.842419 -0.842419 1.000000
v 0.842419 -1.000000 0.842419
v -0.842419 0.842419 -1.000000
v -1.000000 0.842419 -0.842419
v -0.842419 1.000000 -0.842419
v -1.000000 -0.842419 -0.842419
v -0.842419 -0.842419 -1.000000
v -0.842419 -1.000000 -0.842419
v -1.000000 0.842419 0.842419
v -0.842419 0.842419 1.000000
v -0.842419 1.000000 0.842419
v -0.842419 -1.000000 0.842419
v -0.842419 -0.842419 1.000000
v -1.000000 -0.842419 0.842419
v -0.842419 -0.842419 -1.267054
v 0.842419 -0.842419 -1.267054
v 0.842419 0.842419 -1.267054
v -0.842419 0.842419 -1.267054
v -1.337838 -0.842419 0.842419
v -1.337838 -0.842419 -0.842419
v -1.337838 0.842419 0.842419
v -1.337838 0.842419 -0.842419
v -0.842419 -0.842419 1.286583
v -0.842419 0.842419 1.286583
v 0.842419 0.842419 1.286583
v 0.842419 -0.842419 1.286583
v 1.286423 0.842419 -0.842419
v 1.286423 -0.842419 -0.842419
v 1.286423 -0.842419 0.842419
v 1.286423 0.842419 0.842419
v -0.842419 -1.333292 -0.842419
v -0.842419 -1.333292 0.842419
v 0.842419 -1.333292 -0.842419
v 0.842419 -1.333292 0.842419
vt 0.355302 0.519698
vt 0.144698 0.519698
vt 0.144698 0.519698
vt 0.394698 0.230302
vt 0.605302 0.230302
vt 0.605302 0.230302
vt 0.855302 0.519698
vt 0.644698 0.730302
vt 0.644698 0.519698
vt 0.605302 0.980302
vt 0.605302 0.769698
vt 0.605302 0.769698
vt 0.625000 0.019698
vt 0.625000 0.230302
vt 0.625000 0.230302
vt 0.394698 0.730302
vt 0.605302 0.730302
vt 0.605302 0.730302
vt 0.605302 0.480302
vt 0.625000 0.480302
vt 0.605302 0.500000
vt 0.355302 0.500000
vt 0.375000 0.519698
vt 0.625000 0.730302
vt 0.605302 0.750000
vt 0.394698 0.750000
vt 0.375000 0.769698
vt 0.375000 0.769698
vt 0.605302 0.250000
vt 0.605302 0.250000
vt 0.394698 0.250000
vt 0.375000 0.230302
vt 0.605302 0.019698
vt 0.605302 0.000000
vt 0.144698 0.730302
vt 0.144698 0.750000
vt 0.125000 0.730302
vt 0.125000 0.519698
vt 0.394698 0.519698
vt 0.605302 0.519698
vt 0.394698 0.019698
vt 0.394698 0.000000
vt 0.394698 0.769698
vt 0.394698 0.269698
vt 0.605302 0.269698
vt 0.625000 0.980302
vt 0.625000 0.769698
vt 0.644698 0.730302
vt 0.644698 0.519698
vt 0.355302 0.730302
vt 0.625000 0.269698
vt 0.394698 0.480302
vt 0.605302 0.480302
vt 0.625000 0.980302
vt 0.625000 0.480302
vt 0.605302 0.269698
vt 0.394698 0.480302
vt 0.394698 0.269698
vt 0.144698 0.500000
vt 0.355302 0.500000
vt 0.605302 0.019698
vt 0.394698 0.230302
vt 0.394698 0.019698
vt 0.125000 0.519698
vt 0.394698 0.980302
vt 0.394698 0.769698
vt 0.605302 0.000000
vt 0.355302 0.750000
vt 0.144698 0.750000
vt 0.605302 0.519698
vt 0.394698 0.730302
vt 0.394698 0.519698
vt 0.355302 0.519698
vt 0.144698 0.730302
vt 0.355302 0.730302
vt 0.855302 0.730302
vt 0.605302 0.980302
vt 0.625000 0.019698
vt 0.625000 0.769698
vt 0.625000 0.269698
vt 0.144698 0.500000
vt 0.125000 0.730302
vt 0.394698 0.000000
vt 0.355302 0.750000
vn 0.0000 0.0000 -1.0000
vn 0.0000 1.0000 0.0000
vn -1.0000 0.0000 0.0000
vn 0.0000 0.0000 1.0000
vn 0.5774 0.5774 -0.5774
vn 0.5774 -0.5774 -0.5774
vn 0.5774 0.5774 0.5774
vn 0.5774 -0.5774 0.5774
vn -0.5774 0.5774 -0.5774
vn -0.5774 -0.5774 -0.5774
vn -0.5774 0.5774 0.5774
vn -0.5774 -0.5774 0.5774
vn -0.7071 -0.7071 0.0000
vn 0.0000 -0.7071 -0.7071
vn 0.7071 0.0000 -0.7071
vn -0.7071 0.0000 0.7071
vn 0.7071 0.0000 0.7071
vn -0.7071 0.0000 -0.7071
vn 0.0000 0.7071 0.7071
vn 0.7071 0.7071 0.0000
vn 0.0000 -0.7071 0.7071
vn -0.7071 0.7071 0.0000
vn 0.0000 0.7071 -0.7071
vn 0.7071 -0.7071 0.0000
vn 1.0000 0.0000 0.0000
vn 0.0000 -1.0000 0.0000
usemtl Material
s off
f 8/1/1 45/2/1 22/3/1
f 20/4/1 36/5/1 18/6/1
f 1/7/2 4/8/2 2/9/2
f 24/10/2 39/11/2 13/12/2
f 25/13/3 1/14/3 19/15/3
f 14/16/4 44/17/4 11/18/4
f 5/19/5 6/20/5 7/21/5
f 8/1/6 9/22/6 10/23/6
f 11/18/7 12/24/7 13/25/7
f 14/26/8 15/27/8 16/28/8
f 17/29/9 18/30/9 19/15/9
f 20/4/10 21/31/10 22/32/10
f 23/33/11 24/34/11 25/13/11
f 26/35/12 27/36/12 28/37/12
f 26/35/13 20/38/13 22/3/13
f 22/3/14 9/22/14 8/1/14
f 10/39/15 5/19/15 7/40/15
f 24/34/16 28/41/16 27/42/16
f 15/43/17 11/18/17 13/12/17
f 21/44/18 18/6/18 17/45/18
f 25/46/19 13/12/19 12/47/19
f 12/48/20 7/40/20 6/49/20
f 16/50/21 27/36/21 26/35/21
f 19/15/22 23/33/22 25/13/22
f 6/20/23 17/45/23 19/51/23
f 8/1/24 14/16/24 16/50/24
f 9/52/25 31/53/25 5/19/25
f 6/49/25 4/8/25 12/48/25
f 12/47/4 3/54/4 25/46/4
f 19/51/1 2/55/1 6/20/1
f 32/56/1 30/57/1 29/58/1
f 21/59/26 30/60/26 9/22/26
f 17/45/3 29/58/3 21/44/3
f 5/19/2 32/56/2 17/45/2
f 35/61/3 34/62/3 33/63/3
f 23/33/4 33/63/4 28/41/4
f 28/37/26 34/64/26 20/38/26
f 18/6/2 35/61/2 23/33/2
f 39/11/4 37/65/4 40/66/4
f 13/12/25 40/66/25 15/43/25
f 27/42/3 38/67/3 24/34/3
f 15/68/26 37/69/26 27/36/26
f 41/70/25 43/71/25 42/72/25
f 10/39/26 43/71/26 14/16/26
f 7/40/1 42/72/1 10/39/1
f 11/18/2 41/70/2 7/40/2
f 47/73/26 46/74/26 45/2/26
f 22/3/3 46/74/3 26/35/3
f 16/50/25 47/73/25 8/1/25
f 26/35/4 48/75/4 16/50/4
f 8/1/1 47/73/1 45/2/1
f 20/4/1 34/62/1 36/5/1
f 1/7/2 3/76/2 4/8/2
f 24/10/2 38/77/2 39/11/2
f 25/13/3 3/78/3 1/14/3
f 14/16/4 43/71/4 44/17/4
f 26/35/13 28/37/13 20/38/13
f 22/3/14 21/59/14 9/22/14
f 10/39/15 9/52/15 5/19/15
f 24/34/16 23/33/16 28/41/16
f 15/43/17 14/16/17 11/18/17
f 21/44/18 20/4/18 18/6/18
f 25/46/19 24/10/19 13/12/19
f 12/48/20 11/18/20 7/40/20
f 16/50/21 15/68/21 27/36/21
f 19/15/22 18/6/22 23/33/22
f 6/20/23 5/19/23 17/45/23
f 8/1/24 10/39/24 14/16/24
f 9/52/25 30/57/25 31/53/25
f 6/49/25 2/9/25 4/8/25
f 12/47/4 4/79/4 3/54/4
f 19/51/1 1/80/1 2/55/1
f 32/56/1 31/53/1 30/57/1
f 21/59/26 29/81/26 30/60/26
f 17/45/3 32/56/3 29/58/3
f 5/19/2 31/53/2 32/56/2
f 35/61/3 36/5/3 34/62/3
f 23/33/4 35/61/4 33/63/4
f 28/37/26 33/82/26 34/64/26
f 18/6/2 36/5/2 35/61/2
f 39/11/4 38/77/4 37/65/4
f 13/12/25 39/11/25 40/66/25
f 27/42/3 37/83/3 38/67/3
f 15/68/26 40/84/26 37/69/26
f 41/70/25 44/17/25 43/71/25
f 10/39/26 42/72/26 43/71/26
f 7/40/1 41/70/1 42/72/1
f 11/18/2 44/17/2 41/70/2
f 47/73/26 48/75/26 46/74/26
f 22/3/3 45/2/3 46/74/3
f 16/50/25 48/75/25 47/73/25
f 26/35/4 46/74/4 48/75/4
